# Blender 3.3.1
# www.blender.org
mtllib rock1_w_rock_texture.mtl
o rock1
v 0.049175 -0.083440 -0.046222
v 0.420737 0.007430 0.305650
v -0.184904 0.000803 0.486854
v -0.519613 0.009048 -0.000272
v -0.151851 0.014802 -0.492105
v 0.421730 0.009612 -0.306409
v 0.160704 0.356418 0.494604
v -0.452063 0.358310 0.307977
v -0.442227 0.339805 -0.304342
v 0.007642 0.368996 -0.529424
v 0.520058 0.356416 0.000000
v 0.112989 0.521599 0.001539
v 0.254433 -0.068998 0.127287
v 0.152970 -0.022431 0.470196
v -0.080547 -0.068209 0.269794
v 0.258844 -0.121905 -0.189824
v 0.494614 -0.022372 -0.000628
v -0.434417 -0.034640 0.278678
v -0.286899 -0.083687 -0.011685
v -0.364652 0.006675 -0.280765
v -0.049314 -0.072816 -0.306600
v 0.152907 -0.023108 -0.470441
v 0.614260 0.189054 -0.176806
v 0.552986 0.181904 0.179673
v 0.341764 0.181904 0.470398
v -0.003952 0.119152 0.621113
v -0.468233 0.165496 0.455628
v -0.604554 0.165870 0.243193
v -0.575050 0.164966 -0.178348
v -0.370368 0.172726 -0.489926
v -0.017488 0.170489 -0.595445
v 0.394523 0.182167 -0.470356
v 0.400143 0.387057 0.290720
v -0.200574 0.388441 0.471967
v -0.494604 0.387057 0.000000
v -0.175684 0.384604 -0.473166
v 0.437814 0.374510 -0.291437
v 0.323698 0.495654 -0.004186
v 0.106220 0.524990 0.299395
v -0.221464 0.491265 0.166416
v -0.216746 0.488798 -0.161945
v 0.034281 0.477827 -0.323101
vn -0.0450 -0.9977 0.0508
vn 0.1437 -0.9784 0.1485
vn -0.0248 -0.9859 0.1656
vn 0.6080 -0.6590 0.4427
vn 0.6629 -0.7462 0.0612
vn -0.1972 -0.9785 -0.0596
vn -0.1972 -0.9786 -0.0596
vn -0.1281 -0.9648 -0.2298
vn 0.1844 -0.9748 -0.1258
vn 0.9351 0.0001 0.3543
vn -0.2188 -0.7624 0.6090
vn 0.2413 -0.7901 0.5634
vn 0.0238 -0.1596 0.9869
vn -0.6830 -0.7226 -0.1067
vn -0.4696 -0.8295 0.3024
vn -0.9641 -0.0331 0.2635
vn -0.2441 -0.7124 -0.6579
vn -0.4799 -0.7970 -0.3668
vn -0.6092 -0.0961 -0.7872
vn 0.5979 -0.6640 -0.4491
vn 0.1814 -0.7209 -0.6688
vn 0.5784 0.0067 -0.8157
vn 0.6111 0.0050 0.7915
vn -0.6420 -0.0481 0.7652
vn -0.9392 -0.1014 -0.3281
vn -0.0091 -0.0722 -0.9973
vn 0.5979 -0.6640 -0.4490
vn 0.9711 -0.0056 -0.2387
vn 0.2644 0.5597 0.7854
vn 0.6344 0.6307 0.4469
vn 0.1069 0.9372 0.3320
vn -0.5955 0.7064 0.3825
vn -0.2510 0.6736 0.6952
vn -0.2595 0.9564 0.1343
vn -0.6602 0.6141 -0.4324
vn -0.6869 0.7255 -0.0417
vn -0.2475 0.9541 -0.1687
vn 0.0629 0.6164 -0.7849
vn -0.2904 0.6900 -0.6630
vn 0.0618 0.9407 -0.3334
vn 0.7737 0.6296 0.0702
vn 0.5609 0.7011 -0.4402
vn 0.3715 0.9277 -0.0362
vn -0.4799 -0.7969 -0.3668
vn 0.2413 -0.7902 0.5634
vn -0.6092 -0.0961 -0.7871
vn -0.6602 0.6142 -0.4324
vn -0.6093 -0.0961 -0.7871
vn 0.1814 -0.7210 -0.6688
vn -0.2510 0.6735 0.6952
vn 0.0287 0.9972 -0.0688
vn 0.0618 0.9408 -0.3334
vn -0.6602 0.6141 -0.4325
vt 0.137189 0.587667
vt 0.070567 0.916220
vt 0.965284 0.199054
vt 0.526016 0.246650
vt 0.025045 0.382636
vt 0.651431 0.012166
vt 0.119538 0.080122
vt 0.224982 0.399471
vt 0.616762 0.694788
vt 0.195305 0.909661
vt 0.604840 0.197344
vt 1.000000 0.384759
vt 0.837889 0.138445
vt 0.497566 0.671223
vt 0.430663 0.203914
vt 0.808501 0.143636
vt 0.363476 0.028239
vt 0.720598 0.289165
vt 0.241877 0.066886
vt 0.535833 0.506188
vt 0.743535 0.536478
vt 0.224982 0.460130
vt 0.824193 0.395885
vt 0.360571 0.881548
vt 0.341135 0.501015
vt 0.104717 0.770706
vt 0.033294 0.682670
vt 1.000000 0.062482
vt 0.070913 0.475865
vt 0.650570 0.351664
vt 0.169518 0.773463
vt 0.134097 0.979437
vt 0.986988 0.307427
vt 0.063999 0.161061
vt 0.125374 0.290616
vt 0.650570 0.869034
vt 0.178907 0.214047
vt 0.188827 0.496840
vt 0.224982 0.671386
vt 0.609700 0.439077
vt 0.572319 0.000000
vt 0.893937 0.441829
vt 0.326344 1.000000
vt 0.883391 0.314172
vt 0.535833 0.729813
vt 0.891441 0.162852
vt 0.000000 0.538489
vt 0.950073 0.000000
vt 0.535833 0.439174
vt 0.027023 0.123227
vt 0.475527 0.105286
vt 0.442091 0.000000
vt 0.068375 0.000000
vt 0.724837 0.000000
vt 0.154700 0.021114
vt 0.670245 0.115247
vt 0.598229 0.857525
vt 0.221088 0.198169
vt 0.650570 0.276579
vt 0.569193 0.560623
vt 0.670393 0.439991
vt 0.556831 0.201311
vt 0.254634 0.824362
vt 0.488760 0.865943
vt 0.808501 0.278558
vt 0.412008 0.759852
vt 0.412008 0.232915
vt 0.462793 0.410387
vt 0.771428 0.217926
vt 0.300546 0.000000
vt 0.737922 0.458718
vt 0.225601 0.296617
vt 0.298242 0.820165
vt 0.351907 0.687765
vt 0.400007 0.481485
vt 0.445973 0.704678
vt 0.412008 0.438774
vt 0.352962 0.210281
vt 0.808501 0.419747
vt 0.287932 0.229218
vt 0.270665 0.454989
s 0
usemtl rock_mat
f 1/1/1 13/26/2 15/29/3
f 2/2/4 13/26/2 17/32/5
f 1/1/1 15/29/3 19/35/6
f 1/1/1 19/35/7 21/38/8
f 1/1/1 21/38/8 16/31/9
f 2/3/4 17/33/5 24/44/10
f 3/5/11 14/27/12 26/47/13
f 4/7/14 18/34/15 28/53/16
f 5/9/17 20/36/18 30/57/19
f 6/11/20 22/40/21 32/62/22
f 2/3/4 24/44/10 25/46/23
f 3/4/11 26/49/13 27/51/24
f 4/6/14 28/54/16 29/56/25
f 5/9/17 30/57/19 31/60/26
f 6/11/27 32/62/22 23/41/28
f 7/14/29 33/64/30 39/76/31
f 8/15/32 34/68/33 40/77/34
f 9/18/35 35/69/36 41/79/37
f 10/22/38 36/72/39 42/81/40
f 11/24/41 37/73/42 38/74/43
f 15/29/3 14/27/12 3/5/11
f 15/29/3 13/26/2 14/27/12
f 13/26/2 2/2/4 14/27/12
f 17/32/5 16/31/9 6/10/27
f 17/32/5 13/26/2 16/31/9
f 13/26/2 1/1/1 16/31/9
f 19/35/6 18/34/15 4/7/14
f 19/35/7 15/29/3 18/34/15
f 15/29/3 3/5/11 18/34/15
f 21/38/8 20/37/18 5/8/17
f 21/38/8 19/35/6 20/37/18
f 19/35/6 4/7/14 20/37/44
f 16/30/9 22/40/21 6/11/27
f 16/31/9 21/38/8 22/39/21
f 21/38/8 5/8/17 22/39/21
f 24/44/10 23/42/28 11/23/41
f 24/44/10 17/33/5 23/42/28
f 17/33/5 6/12/27 23/42/28
f 26/49/13 25/45/23 7/14/29
f 26/48/13 14/28/45 25/46/23
f 14/28/12 2/3/4 25/46/23
f 28/52/16 27/51/24 8/15/32
f 28/53/16 18/34/15 27/50/24
f 18/34/15 3/5/11 27/50/24
f 30/59/46 29/56/25 9/18/47
f 30/58/48 20/37/44 29/55/25
f 20/37/44 4/7/14 29/55/25
f 32/62/22 31/60/26 10/20/38
f 32/62/22 22/40/49 31/60/26
f 22/40/21 5/9/17 31/60/26
f 25/46/23 33/65/30 7/13/29
f 25/46/23 24/44/10 33/65/30
f 24/44/10 11/23/41 33/65/30
f 27/51/24 34/68/50 8/15/32
f 27/51/24 26/49/13 34/68/50
f 26/49/13 7/14/29 34/68/50
f 29/56/25 35/69/36 9/18/47
f 29/56/25 28/54/16 35/69/36
f 28/54/16 8/16/32 35/69/36
f 31/61/26 36/71/39 10/21/38
f 31/61/26 30/59/46 36/71/39
f 30/59/46 9/18/35 36/71/39
f 23/43/28 37/73/42 11/24/41
f 23/43/28 32/63/22 37/73/42
f 32/63/22 10/22/38 37/73/42
f 39/75/31 38/74/43 12/25/51
f 39/75/31 33/66/30 38/74/43
f 33/66/30 11/24/41 38/74/43
f 40/78/34 39/75/31 12/25/51
f 40/78/34 34/67/50 39/75/31
f 34/68/50 7/14/29 39/76/31
f 41/80/37 40/78/34 12/25/51
f 41/80/37 35/70/36 40/78/34
f 35/70/36 8/17/32 40/78/34
f 42/81/52 41/80/37 12/25/51
f 42/81/52 36/72/39 41/80/37
f 36/72/39 9/19/53 41/80/37
f 38/74/43 42/81/40 12/25/51
f 38/74/43 37/73/42 42/81/52
f 37/73/42 10/22/38 42/81/52
